<svg xmlns="http://www.w3.org/2000/svg" xmlns:xlink="http://www.w3.org/1999/xlink" width= "1386.4073146273759" height="284.0" viewBox="-40 -135.0 1386.4073146273759 284.0">
<line x1="0" y1="-10.999999999999993" x2="0" y2="-101.0" stroke-width="1" stroke-dasharray="none" stroke="rgb(0, 0, 0)"/>
<line x1="1.0" y1="-10.999999999999993" x2="1.0" y2="-101.0" stroke-width="1" stroke-dasharray="1" stroke="rgb(0, 0, 0)"/>
<line x1="193.98969044771428" y1="101.0" x2="193.98969044771428" y2="10.999999999999993" stroke-width="1" stroke-dasharray="none" stroke="rgb(0, 0, 0)"/>
<line x1="194.98969044771428" y1="101.0" x2="194.98969044771428" y2="10.999999999999993" stroke-width="1" stroke-dasharray="none" stroke="rgb(0, 0, 0)"/>
<line x1="0" y1="-10.999999999999993" x2="193.98969044771428" y2="101.0" stroke-width="1" stroke-dasharray="none" stroke="rgb(0, 0, 0)"/>
<line x1="0" y1="-101.0" x2="193.98969044771428" y2="10.999999999999993" stroke-width="1" stroke-dasharray="none" stroke="rgb(0, 0, 0)"/>
<line x1="1.0" y1="-10.999999999999993" x2="194.98969044771428" y2="101.0" stroke-width="1" stroke-dasharray="1" stroke="rgb(0, 0, 0)"/>
<line x1="1.0" y1="-101.0" x2="194.98969044771428" y2="10.999999999999993" stroke-width="1" stroke-dasharray="none" stroke="rgb(0, 0, 0)"/>
<line x1="0" y1="-10.999999999999993" x2="1.0" y2="-10.999999999999993" stroke-width="1" stroke-dasharray="1" stroke="rgb(0, 0, 0)"/>
<line x1="193.98969044771428" y1="101.0" x2="194.98969044771428" y2="101.0" stroke-width="1" stroke-dasharray="none" stroke="rgb(0, 0, 0)"/>
<line x1="0" y1="-101.0" x2="1.0" y2="-101.0" stroke-width="1" stroke-dasharray="none" stroke="rgb(0, 0, 0)"/>
<line x1="193.98969044771428" y1="10.999999999999993" x2="194.98969044771428" y2="10.999999999999993" stroke-width="1" stroke-dasharray="none" stroke="rgb(0, 0, 0)"/>
<text x="97.49484522385714" y="-111.0" font-family="arial" font-size="14px" text-anchor="middle" fill="rgb(0, 0, 0)">90x320x1</text>
<line x1="264.9896904477143" y1="-12.29999999999999" x2="264.9896904477143" y2="-98.29999999999998" stroke-width="1" stroke-dasharray="none" stroke="rgb(0, 0, 0)"/>
<line x1="266.92287249264604" y1="-12.29999999999999" x2="266.92287249264604" y2="-98.29999999999998" stroke-width="1" stroke-dasharray="1" stroke="rgb(0, 0, 0)"/>
<line x1="456.5545097648321" y1="98.29999999999998" x2="456.5545097648321" y2="12.29999999999999" stroke-width="1" stroke-dasharray="none" stroke="rgb(0, 0, 0)"/>
<line x1="458.4876918097639" y1="98.29999999999998" x2="458.4876918097639" y2="12.29999999999999" stroke-width="1" stroke-dasharray="none" stroke="rgb(0, 0, 0)"/>
<line x1="264.9896904477143" y1="-12.29999999999999" x2="456.5545097648321" y2="98.29999999999998" stroke-width="1" stroke-dasharray="none" stroke="rgb(0, 0, 0)"/>
<line x1="264.9896904477143" y1="-98.29999999999998" x2="456.5545097648321" y2="12.29999999999999" stroke-width="1" stroke-dasharray="none" stroke="rgb(0, 0, 0)"/>
<line x1="266.92287249264604" y1="-12.29999999999999" x2="458.4876918097639" y2="98.29999999999998" stroke-width="1" stroke-dasharray="1" stroke="rgb(0, 0, 0)"/>
<line x1="266.92287249264604" y1="-98.29999999999998" x2="458.4876918097639" y2="12.29999999999999" stroke-width="1" stroke-dasharray="none" stroke="rgb(0, 0, 0)"/>
<line x1="264.9896904477143" y1="-12.29999999999999" x2="266.92287249264604" y2="-12.29999999999999" stroke-width="1" stroke-dasharray="1" stroke="rgb(0, 0, 0)"/>
<line x1="456.5545097648321" y1="98.29999999999998" x2="458.4876918097639" y2="98.29999999999998" stroke-width="1" stroke-dasharray="none" stroke="rgb(0, 0, 0)"/>
<line x1="264.9896904477143" y1="-98.29999999999998" x2="266.92287249264604" y2="-98.29999999999998" stroke-width="1" stroke-dasharray="none" stroke="rgb(0, 0, 0)"/>
<line x1="456.5545097648321" y1="12.29999999999999" x2="458.4876918097639" y2="12.29999999999999" stroke-width="1" stroke-dasharray="none" stroke="rgb(0, 0, 0)"/>
<text x="361.7386911287391" y="-108.29999999999998" font-family="arial" font-size="14px" text-anchor="middle" fill="rgb(0, 0, 0)">86x316x3</text>
<line x1="528.4876918097639" y1="-3.3249999999999975" x2="528.4876918097639" y2="-24.324999999999996" stroke-width="1" stroke-dasharray="none" stroke="rgb(0, 0, 0)"/>
<line x1="530.4208738546956" y1="-3.3249999999999975" x2="530.4208738546956" y2="-24.324999999999996" stroke-width="1" stroke-dasharray="1" stroke="rgb(0, 0, 0)"/>
<line x1="576.3788966390433" y1="24.324999999999996" x2="576.3788966390433" y2="3.3249999999999975" stroke-width="1" stroke-dasharray="none" stroke="rgb(0, 0, 0)"/>
<line x1="578.3120786839751" y1="24.324999999999996" x2="578.3120786839751" y2="3.3249999999999975" stroke-width="1" stroke-dasharray="none" stroke="rgb(0, 0, 0)"/>
<line x1="528.4876918097639" y1="-3.3249999999999975" x2="576.3788966390433" y2="24.324999999999996" stroke-width="1" stroke-dasharray="none" stroke="rgb(0, 0, 0)"/>
<line x1="528.4876918097639" y1="-24.324999999999996" x2="576.3788966390433" y2="3.3249999999999975" stroke-width="1" stroke-dasharray="none" stroke="rgb(0, 0, 0)"/>
<line x1="530.4208738546956" y1="-3.3249999999999975" x2="578.3120786839751" y2="24.324999999999996" stroke-width="1" stroke-dasharray="1" stroke="rgb(0, 0, 0)"/>
<line x1="530.4208738546956" y1="-24.324999999999996" x2="578.3120786839751" y2="3.3249999999999975" stroke-width="1" stroke-dasharray="none" stroke="rgb(0, 0, 0)"/>
<line x1="528.4876918097639" y1="-3.3249999999999975" x2="530.4208738546956" y2="-3.3249999999999975" stroke-width="1" stroke-dasharray="1" stroke="rgb(0, 0, 0)"/>
<line x1="576.3788966390433" y1="24.324999999999996" x2="578.3120786839751" y2="24.324999999999996" stroke-width="1" stroke-dasharray="none" stroke="rgb(0, 0, 0)"/>
<line x1="528.4876918097639" y1="-24.324999999999996" x2="530.4208738546956" y2="-24.324999999999996" stroke-width="1" stroke-dasharray="none" stroke="rgb(0, 0, 0)"/>
<line x1="576.3788966390433" y1="3.3249999999999975" x2="578.3120786839751" y2="3.3249999999999975" stroke-width="1" stroke-dasharray="none" stroke="rgb(0, 0, 0)"/>
<text x="553.3998852468694" y="-34.324999999999996" font-family="arial" font-size="14px" text-anchor="middle" fill="rgb(0, 0, 0)">21x79x3</text>
<line x1="648.3120786839751" y1="-3.974999999999998" x2="648.3120786839751" y2="-22.974999999999998" stroke-width="1" stroke-dasharray="none" stroke="rgb(0, 0, 0)"/>
<line x1="651.2422347355586" y1="-3.974999999999998" x2="651.2422347355586" y2="-22.974999999999998" stroke-width="1" stroke-dasharray="1" stroke="rgb(0, 0, 0)"/>
<line x1="694.9908479479564" y1="22.974999999999998" x2="694.9908479479564" y2="3.974999999999998" stroke-width="1" stroke-dasharray="none" stroke="rgb(0, 0, 0)"/>
<line x1="697.9210039995398" y1="22.974999999999998" x2="697.9210039995398" y2="3.974999999999998" stroke-width="1" stroke-dasharray="none" stroke="rgb(0, 0, 0)"/>
<line x1="648.3120786839751" y1="-3.974999999999998" x2="694.9908479479564" y2="22.974999999999998" stroke-width="1" stroke-dasharray="none" stroke="rgb(0, 0, 0)"/>
<line x1="648.3120786839751" y1="-22.974999999999998" x2="694.9908479479564" y2="3.974999999999998" stroke-width="1" stroke-dasharray="none" stroke="rgb(0, 0, 0)"/>
<line x1="651.2422347355586" y1="-3.974999999999998" x2="697.9210039995398" y2="22.974999999999998" stroke-width="1" stroke-dasharray="1" stroke="rgb(0, 0, 0)"/>
<line x1="651.2422347355586" y1="-22.974999999999998" x2="697.9210039995398" y2="3.974999999999998" stroke-width="1" stroke-dasharray="none" stroke="rgb(0, 0, 0)"/>
<line x1="648.3120786839751" y1="-3.974999999999998" x2="651.2422347355586" y2="-3.974999999999998" stroke-width="1" stroke-dasharray="1" stroke="rgb(0, 0, 0)"/>
<line x1="694.9908479479564" y1="22.974999999999998" x2="697.9210039995398" y2="22.974999999999998" stroke-width="1" stroke-dasharray="none" stroke="rgb(0, 0, 0)"/>
<line x1="648.3120786839751" y1="-22.974999999999998" x2="651.2422347355586" y2="-22.974999999999998" stroke-width="1" stroke-dasharray="none" stroke="rgb(0, 0, 0)"/>
<line x1="694.9908479479564" y1="3.974999999999998" x2="697.9210039995398" y2="3.974999999999998" stroke-width="1" stroke-dasharray="none" stroke="rgb(0, 0, 0)"/>
<text x="673.1165413417575" y="-32.974999999999994" font-family="arial" font-size="14px" text-anchor="middle" fill="rgb(0, 0, 0)">19x77x6</text>
<line x1="767.9210039995398" y1="-1.3249999999999993" x2="767.9210039995398" y2="-5.324999999999999" stroke-width="1" stroke-dasharray="none" stroke="rgb(0, 0, 0)"/>
<line x1="770.8511600511233" y1="-1.3249999999999993" x2="770.8511600511233" y2="-5.324999999999999" stroke-width="1" stroke-dasharray="1" stroke="rgb(0, 0, 0)"/>
<line x1="779.4391418698729" y1="5.324999999999999" x2="779.4391418698729" y2="1.3249999999999993" stroke-width="1" stroke-dasharray="none" stroke="rgb(0, 0, 0)"/>
<line x1="782.3692979214563" y1="5.324999999999999" x2="782.3692979214563" y2="1.3249999999999993" stroke-width="1" stroke-dasharray="none" stroke="rgb(0, 0, 0)"/>
<line x1="767.9210039995398" y1="-1.3249999999999993" x2="779.4391418698729" y2="5.324999999999999" stroke-width="1" stroke-dasharray="none" stroke="rgb(0, 0, 0)"/>
<line x1="767.9210039995398" y1="-5.324999999999999" x2="779.4391418698729" y2="1.3249999999999993" stroke-width="1" stroke-dasharray="none" stroke="rgb(0, 0, 0)"/>
<line x1="770.8511600511233" y1="-1.3249999999999993" x2="782.3692979214563" y2="5.324999999999999" stroke-width="1" stroke-dasharray="1" stroke="rgb(0, 0, 0)"/>
<line x1="770.8511600511233" y1="-5.324999999999999" x2="782.3692979214563" y2="1.3249999999999993" stroke-width="1" stroke-dasharray="none" stroke="rgb(0, 0, 0)"/>
<line x1="767.9210039995398" y1="-1.3249999999999993" x2="770.8511600511233" y2="-1.3249999999999993" stroke-width="1" stroke-dasharray="1" stroke="rgb(0, 0, 0)"/>
<line x1="779.4391418698729" y1="5.324999999999999" x2="782.3692979214563" y2="5.324999999999999" stroke-width="1" stroke-dasharray="none" stroke="rgb(0, 0, 0)"/>
<line x1="767.9210039995398" y1="-5.324999999999999" x2="770.8511600511233" y2="-5.324999999999999" stroke-width="1" stroke-dasharray="none" stroke="rgb(0, 0, 0)"/>
<line x1="779.4391418698729" y1="1.3249999999999993" x2="782.3692979214563" y2="1.3249999999999993" stroke-width="1" stroke-dasharray="none" stroke="rgb(0, 0, 0)"/>
<text x="775.1451509604981" y="-15.325" font-family="arial" font-size="14px" text-anchor="middle" fill="rgb(0, 0, 0)">4x19x6</text>
<line x1="852.3692979214563" y1="-1.9749999999999992" x2="852.3692979214563" y2="-3.974999999999999" stroke-width="1" stroke-dasharray="none" stroke="rgb(0, 0, 0)"/>
<line x1="856.8105839913022" y1="-1.9749999999999992" x2="856.8105839913022" y2="-3.974999999999999" stroke-width="1" stroke-dasharray="1" stroke="rgb(0, 0, 0)"/>
<line x1="862.6750002264912" y1="3.974999999999999" x2="862.6750002264912" y2="1.9749999999999992" stroke-width="1" stroke-dasharray="none" stroke="rgb(0, 0, 0)"/>
<line x1="867.116286296337" y1="3.974999999999999" x2="867.116286296337" y2="1.9749999999999992" stroke-width="1" stroke-dasharray="none" stroke="rgb(0, 0, 0)"/>
<line x1="852.3692979214563" y1="-1.9749999999999992" x2="862.6750002264912" y2="3.974999999999999" stroke-width="1" stroke-dasharray="none" stroke="rgb(0, 0, 0)"/>
<line x1="852.3692979214563" y1="-3.974999999999999" x2="862.6750002264912" y2="1.9749999999999992" stroke-width="1" stroke-dasharray="none" stroke="rgb(0, 0, 0)"/>
<line x1="856.8105839913022" y1="-1.9749999999999992" x2="867.116286296337" y2="3.974999999999999" stroke-width="1" stroke-dasharray="1" stroke="rgb(0, 0, 0)"/>
<line x1="856.8105839913022" y1="-3.974999999999999" x2="867.116286296337" y2="1.9749999999999992" stroke-width="1" stroke-dasharray="none" stroke="rgb(0, 0, 0)"/>
<line x1="852.3692979214563" y1="-1.9749999999999992" x2="856.8105839913022" y2="-1.9749999999999992" stroke-width="1" stroke-dasharray="1" stroke="rgb(0, 0, 0)"/>
<line x1="862.6750002264912" y1="3.974999999999999" x2="867.116286296337" y2="3.974999999999999" stroke-width="1" stroke-dasharray="none" stroke="rgb(0, 0, 0)"/>
<line x1="852.3692979214563" y1="-3.974999999999999" x2="856.8105839913022" y2="-3.974999999999999" stroke-width="1" stroke-dasharray="none" stroke="rgb(0, 0, 0)"/>
<line x1="862.6750002264912" y1="1.9749999999999992" x2="867.116286296337" y2="1.9749999999999992" stroke-width="1" stroke-dasharray="none" stroke="rgb(0, 0, 0)"/>
<text x="859.7427921088968" y="-13.975" font-family="arial" font-size="14px" text-anchor="middle" fill="rgb(0, 0, 0)">2x17x12</text>
<line x1="937.1162862963371" y1="-0.8999999999999997" x2="937.1162862963371" y2="-1.8999999999999997" stroke-width="1" stroke-dasharray="none" stroke="rgb(0, 0, 0)"/>
<line x1="941.557572366183" y1="-0.8999999999999997" x2="941.557572366183" y2="-1.8999999999999997" stroke-width="1" stroke-dasharray="1" stroke="rgb(0, 0, 0)"/>
<line x1="941.96602855753" y1="1.8999999999999997" x2="941.96602855753" y2="0.8999999999999997" stroke-width="1" stroke-dasharray="none" stroke="rgb(0, 0, 0)"/>
<line x1="946.4073146273757" y1="1.8999999999999997" x2="946.4073146273757" y2="0.8999999999999997" stroke-width="1" stroke-dasharray="none" stroke="rgb(0, 0, 0)"/>
<line x1="937.1162862963371" y1="-0.8999999999999997" x2="941.96602855753" y2="1.8999999999999997" stroke-width="1" stroke-dasharray="none" stroke="rgb(0, 0, 0)"/>
<line x1="937.1162862963371" y1="-1.8999999999999997" x2="941.96602855753" y2="0.8999999999999997" stroke-width="1" stroke-dasharray="none" stroke="rgb(0, 0, 0)"/>
<line x1="941.557572366183" y1="-0.8999999999999997" x2="946.4073146273757" y2="1.8999999999999997" stroke-width="1" stroke-dasharray="1" stroke="rgb(0, 0, 0)"/>
<line x1="941.557572366183" y1="-1.8999999999999997" x2="946.4073146273757" y2="0.8999999999999997" stroke-width="1" stroke-dasharray="none" stroke="rgb(0, 0, 0)"/>
<line x1="937.1162862963371" y1="-0.8999999999999997" x2="941.557572366183" y2="-0.8999999999999997" stroke-width="1" stroke-dasharray="1" stroke="rgb(0, 0, 0)"/>
<line x1="941.96602855753" y1="1.8999999999999997" x2="946.4073146273757" y2="1.8999999999999997" stroke-width="1" stroke-dasharray="none" stroke="rgb(0, 0, 0)"/>
<line x1="937.1162862963371" y1="-1.8999999999999997" x2="941.557572366183" y2="-1.8999999999999997" stroke-width="1" stroke-dasharray="none" stroke="rgb(0, 0, 0)"/>
<line x1="941.96602855753" y1="0.8999999999999997" x2="946.4073146273757" y2="0.8999999999999997" stroke-width="1" stroke-dasharray="none" stroke="rgb(0, 0, 0)"/>
<text x="941.7618004618564" y="-11.9" font-family="arial" font-size="14px" text-anchor="middle" fill="rgb(0, 0, 0)">1x8x12</text>
<line x1="1016.4073146273759" y1="-7.73272817972705" x2="1016.4073146273759" y2="7.73272817972705" stroke-width="1" stroke-dasharray="none" stroke="rgb(0, 0, 0)"/>
<line x1="1016.4073146273759" y1="7.73272817972705" x2="1018.4073146273759" y2="7.73272817972705" stroke-width="1" stroke-dasharray="none" stroke="rgb(0, 0, 0)"/>
<line x1="1018.4073146273759" y1="7.73272817972705" x2="1018.4073146273759" y2="-7.73272817972705" stroke-width="1" stroke-dasharray="none" stroke="rgb(0, 0, 0)"/>
<line x1="1018.4073146273759" y1="-7.73272817972705" x2="1016.4073146273759" y2="-7.73272817972705" stroke-width="1" stroke-dasharray="none" stroke="rgb(0, 0, 0)"/>
<text x="1017.4073146273759" y="-17.73272817972705" font-family="arial" font-size="14px" text-anchor="middle" fill="rgb(0, 0, 0)">96</text>
<line x1="1088.4073146273759" y1="-6.062866266041592" x2="1088.4073146273759" y2="6.062866266041592" stroke-width="1" stroke-dasharray="none" stroke="rgb(0, 0, 0)"/>
<line x1="1088.4073146273759" y1="6.062866266041592" x2="1090.4073146273759" y2="6.062866266041592" stroke-width="1" stroke-dasharray="none" stroke="rgb(0, 0, 0)"/>
<line x1="1090.4073146273759" y1="6.062866266041592" x2="1090.4073146273759" y2="-6.062866266041592" stroke-width="1" stroke-dasharray="none" stroke="rgb(0, 0, 0)"/>
<line x1="1090.4073146273759" y1="-6.062866266041592" x2="1088.4073146273759" y2="-6.062866266041592" stroke-width="1" stroke-dasharray="none" stroke="rgb(0, 0, 0)"/>
<text x="1089.4073146273759" y="-16.062866266041592" font-family="arial" font-size="14px" text-anchor="middle" fill="rgb(0, 0, 0)">64</text>
<line x1="1160.4073146273759" y1="-3.9999999999999996" x2="1160.4073146273759" y2="3.9999999999999996" stroke-width="1" stroke-dasharray="none" stroke="rgb(0, 0, 0)"/>
<line x1="1160.4073146273759" y1="3.9999999999999996" x2="1162.4073146273759" y2="3.9999999999999996" stroke-width="1" stroke-dasharray="none" stroke="rgb(0, 0, 0)"/>
<line x1="1162.4073146273759" y1="3.9999999999999996" x2="1162.4073146273759" y2="-3.9999999999999996" stroke-width="1" stroke-dasharray="none" stroke="rgb(0, 0, 0)"/>
<line x1="1162.4073146273759" y1="-3.9999999999999996" x2="1160.4073146273759" y2="-3.9999999999999996" stroke-width="1" stroke-dasharray="none" stroke="rgb(0, 0, 0)"/>
<text x="1161.4073146273759" y="-14.0" font-family="arial" font-size="14px" text-anchor="middle" fill="rgb(0, 0, 0)">32</text>
<line x1="1232.4073146273759" y1="-2.6390158215457884" x2="1232.4073146273759" y2="2.6390158215457884" stroke-width="1" stroke-dasharray="none" stroke="rgb(0, 0, 0)"/>
<line x1="1232.4073146273759" y1="2.6390158215457884" x2="1234.4073146273759" y2="2.6390158215457884" stroke-width="1" stroke-dasharray="none" stroke="rgb(0, 0, 0)"/>
<line x1="1234.4073146273759" y1="2.6390158215457884" x2="1234.4073146273759" y2="-2.6390158215457884" stroke-width="1" stroke-dasharray="none" stroke="rgb(0, 0, 0)"/>
<line x1="1234.4073146273759" y1="-2.6390158215457884" x2="1232.4073146273759" y2="-2.6390158215457884" stroke-width="1" stroke-dasharray="none" stroke="rgb(0, 0, 0)"/>
<text x="1233.4073146273759" y="-12.639015821545788" font-family="arial" font-size="14px" text-anchor="middle" fill="rgb(0, 0, 0)">16</text>
<line x1="1304.4073146273759" y1="-0.5" x2="1304.4073146273759" y2="0.5" stroke-width="1" stroke-dasharray="none" stroke="rgb(0, 0, 0)"/>
<line x1="1304.4073146273759" y1="0.5" x2="1306.4073146273759" y2="0.5" stroke-width="1" stroke-dasharray="none" stroke="rgb(0, 0, 0)"/>
<line x1="1306.4073146273759" y1="0.5" x2="1306.4073146273759" y2="-0.5" stroke-width="1" stroke-dasharray="none" stroke="rgb(0, 0, 0)"/>
<line x1="1306.4073146273759" y1="-0.5" x2="1304.4073146273759" y2="-0.5" stroke-width="1" stroke-dasharray="none" stroke="rgb(0, 0, 0)"/>
<text x="1305.4073146273759" y="-10.5" font-family="arial" font-size="14px" text-anchor="middle" fill="rgb(0, 0, 0)">1</text>
<line x1="96.99484522385714" y1="1.625" x2="96.99484522385714" y2="-3.375" stroke-width="1" stroke-dasharray="none" stroke="rgb(0, 0, 255)"/>
<line x1="97.99484522385714" y1="1.625" x2="97.99484522385714" y2="-3.375" stroke-width="1" stroke-dasharray="1" stroke="rgb(0, 0, 255)"/>
<line x1="100.02593413710268" y1="3.375" x2="100.02593413710268" y2="-1.625" stroke-width="1" stroke-dasharray="none" stroke="rgb(0, 0, 255)"/>
<line x1="101.02593413710268" y1="3.375" x2="101.02593413710268" y2="-1.625" stroke-width="1" stroke-dasharray="none" stroke="rgb(0, 0, 255)"/>
<line x1="96.99484522385714" y1="1.625" x2="100.02593413710268" y2="3.375" stroke-width="1" stroke-dasharray="none" stroke="rgb(0, 0, 255)"/>
<line x1="96.99484522385714" y1="-3.375" x2="100.02593413710268" y2="-1.625" stroke-width="1" stroke-dasharray="none" stroke="rgb(0, 0, 255)"/>
<line x1="97.99484522385714" y1="1.625" x2="101.02593413710268" y2="3.375" stroke-width="1" stroke-dasharray="1" stroke="rgb(0, 0, 255)"/>
<line x1="97.99484522385714" y1="-3.375" x2="101.02593413710268" y2="-1.625" stroke-width="1" stroke-dasharray="none" stroke="rgb(0, 0, 255)"/>
<line x1="96.99484522385714" y1="1.625" x2="97.99484522385714" y2="1.625" stroke-width="1" stroke-dasharray="1" stroke="rgb(0, 0, 255)"/>
<line x1="100.02593413710268" y1="3.375" x2="101.02593413710268" y2="3.375" stroke-width="1" stroke-dasharray="none" stroke="rgb(0, 0, 255)"/>
<line x1="96.99484522385714" y1="-3.375" x2="97.99484522385714" y2="-3.375" stroke-width="1" stroke-dasharray="none" stroke="rgb(0, 0, 255)"/>
<line x1="100.02593413710268" y1="-1.625" x2="101.02593413710268" y2="-1.625" stroke-width="1" stroke-dasharray="none" stroke="rgb(0, 0, 255)"/>
<line x1="97.99484522385714" y1="-3.375" x2="312.8808952769937" y2="-49.14999999999999" stroke-width="1" stroke-dasharray="none" stroke="rgb(0, 0, 255)"/>
<line x1="101.02593413710268" y1="3.375" x2="312.8808952769937" y2="-49.14999999999999" stroke-width="1" stroke-dasharray="none" stroke="rgb(0, 0, 255)"/>
<text x="229.98969044771428" y="125.0" font-family="arial" font-size="14px" text-anchor="middle" fill="rgb(0, 0, 0)">conv5x5, 3</text>
<text x="229.98969044771428" y="139.0" font-family="arial" font-size="14px" text-anchor="middle" fill="rgb(0, 0, 0)">stride (1, 1)</text>
<line x1="360.77210010627323" y1="1.3000000000000003" x2="360.77210010627323" y2="-2.6999999999999997" stroke-width="1" stroke-dasharray="none" stroke="rgb(0, 0, 255)"/>
<line x1="362.705282151205" y1="1.3000000000000003" x2="362.705282151205" y2="-2.6999999999999997" stroke-width="1" stroke-dasharray="1" stroke="rgb(0, 0, 255)"/>
<line x1="363.1969712368697" y1="2.7" x2="363.1969712368697" y2="-1.3000000000000003" stroke-width="1" stroke-dasharray="none" stroke="rgb(0, 0, 255)"/>
<line x1="365.1301532818014" y1="2.7" x2="365.1301532818014" y2="-1.3000000000000003" stroke-width="1" stroke-dasharray="none" stroke="rgb(0, 0, 255)"/>
<line x1="360.77210010627323" y1="1.3000000000000003" x2="363.1969712368697" y2="2.7" stroke-width="1" stroke-dasharray="none" stroke="rgb(0, 0, 255)"/>
<line x1="360.77210010627323" y1="-2.6999999999999997" x2="363.1969712368697" y2="-1.3000000000000003" stroke-width="1" stroke-dasharray="none" stroke="rgb(0, 0, 255)"/>
<line x1="362.705282151205" y1="1.3000000000000003" x2="365.1301532818014" y2="2.7" stroke-width="1" stroke-dasharray="1" stroke="rgb(0, 0, 255)"/>
<line x1="362.705282151205" y1="-2.6999999999999997" x2="365.1301532818014" y2="-1.3000000000000003" stroke-width="1" stroke-dasharray="none" stroke="rgb(0, 0, 255)"/>
<line x1="360.77210010627323" y1="1.3000000000000003" x2="362.705282151205" y2="1.3000000000000003" stroke-width="1" stroke-dasharray="1" stroke="rgb(0, 0, 255)"/>
<line x1="363.1969712368697" y1="2.7" x2="365.1301532818014" y2="2.7" stroke-width="1" stroke-dasharray="none" stroke="rgb(0, 0, 255)"/>
<line x1="360.77210010627323" y1="-2.6999999999999997" x2="362.705282151205" y2="-2.6999999999999997" stroke-width="1" stroke-dasharray="none" stroke="rgb(0, 0, 255)"/>
<line x1="363.1969712368697" y1="-1.3000000000000003" x2="365.1301532818014" y2="-1.3000000000000003" stroke-width="1" stroke-dasharray="none" stroke="rgb(0, 0, 255)"/>
<line x1="362.705282151205" y1="-2.7" x2="540.4604930170838" y2="-12.162499999999998" stroke-width="1" stroke-dasharray="none" stroke="rgb(0, 0, 255)"/>
<line x1="365.1301532818014" y1="2.6999999999999997" x2="540.4604930170838" y2="-12.162499999999998" stroke-width="1" stroke-dasharray="none" stroke="rgb(0, 0, 255)"/>
<text x="493.4876918097639" y="122.29999999999998" font-family="arial" font-size="14px" text-anchor="middle" fill="rgb(0, 0, 0)">maxpool4x4</text>
<text x="493.4876918097639" y="136.29999999999998" font-family="arial" font-size="14px" text-anchor="middle" fill="rgb(0, 0, 0)">stride (4, 4)</text>
<line x1="552.4332942244037" y1="0.9750000000000002" x2="552.4332942244037" y2="-2.025" stroke-width="1" stroke-dasharray="none" stroke="rgb(0, 0, 255)"/>
<line x1="554.3664762693354" y1="0.9750000000000002" x2="554.3664762693354" y2="-2.025" stroke-width="1" stroke-dasharray="1" stroke="rgb(0, 0, 255)"/>
<line x1="554.251947572351" y1="2.025" x2="554.251947572351" y2="-0.9750000000000002" stroke-width="1" stroke-dasharray="none" stroke="rgb(0, 0, 255)"/>
<line x1="556.1851296172828" y1="2.025" x2="556.1851296172828" y2="-0.9750000000000002" stroke-width="1" stroke-dasharray="none" stroke="rgb(0, 0, 255)"/>
<line x1="552.4332942244037" y1="0.9750000000000002" x2="554.251947572351" y2="2.025" stroke-width="1" stroke-dasharray="none" stroke="rgb(0, 0, 255)"/>
<line x1="552.4332942244037" y1="-2.025" x2="554.251947572351" y2="-0.9750000000000002" stroke-width="1" stroke-dasharray="none" stroke="rgb(0, 0, 255)"/>
<line x1="554.3664762693354" y1="0.9750000000000002" x2="556.1851296172828" y2="2.025" stroke-width="1" stroke-dasharray="1" stroke="rgb(0, 0, 255)"/>
<line x1="554.3664762693354" y1="-2.025" x2="556.1851296172828" y2="-0.9750000000000002" stroke-width="1" stroke-dasharray="none" stroke="rgb(0, 0, 255)"/>
<line x1="552.4332942244037" y1="0.9750000000000002" x2="554.3664762693354" y2="0.9750000000000002" stroke-width="1" stroke-dasharray="1" stroke="rgb(0, 0, 255)"/>
<line x1="554.251947572351" y1="2.025" x2="556.1851296172828" y2="2.025" stroke-width="1" stroke-dasharray="none" stroke="rgb(0, 0, 255)"/>
<line x1="552.4332942244037" y1="-2.025" x2="554.3664762693354" y2="-2.025" stroke-width="1" stroke-dasharray="none" stroke="rgb(0, 0, 255)"/>
<line x1="554.251947572351" y1="-0.9750000000000002" x2="556.1851296172828" y2="-0.9750000000000002" stroke-width="1" stroke-dasharray="none" stroke="rgb(0, 0, 255)"/>
<line x1="554.3664762693354" y1="-2.025" x2="659.9817709999704" y2="-11.487499999999999" stroke-width="1" stroke-dasharray="none" stroke="rgb(0, 0, 255)"/>
<line x1="556.1851296172828" y1="2.025" x2="659.9817709999704" y2="-11.487499999999999" stroke-width="1" stroke-dasharray="none" stroke="rgb(0, 0, 255)"/>
<text x="613.3120786839751" y="48.324999999999996" font-family="arial" font-size="14px" text-anchor="middle" fill="rgb(0, 0, 0)">conv3x3, 6</text>
<text x="613.3120786839751" y="62.324999999999996" font-family="arial" font-size="14px" text-anchor="middle" fill="rgb(0, 0, 0)">stride (1, 1)</text>
<line x1="671.6514633159657" y1="1.3000000000000003" x2="671.6514633159657" y2="-2.6999999999999997" stroke-width="1" stroke-dasharray="none" stroke="rgb(0, 0, 255)"/>
<line x1="674.5816193675491" y1="1.3000000000000003" x2="674.5816193675491" y2="-2.6999999999999997" stroke-width="1" stroke-dasharray="1" stroke="rgb(0, 0, 255)"/>
<line x1="674.0763344465621" y1="2.7" x2="674.0763344465621" y2="-1.3000000000000003" stroke-width="1" stroke-dasharray="none" stroke="rgb(0, 0, 255)"/>
<line x1="677.0064904981456" y1="2.7" x2="677.0064904981456" y2="-1.3000000000000003" stroke-width="1" stroke-dasharray="none" stroke="rgb(0, 0, 255)"/>
<line x1="671.6514633159657" y1="1.3000000000000003" x2="674.0763344465621" y2="2.7" stroke-width="1" stroke-dasharray="none" stroke="rgb(0, 0, 255)"/>
<line x1="671.6514633159657" y1="-2.6999999999999997" x2="674.0763344465621" y2="-1.3000000000000003" stroke-width="1" stroke-dasharray="none" stroke="rgb(0, 0, 255)"/>
<line x1="674.5816193675491" y1="1.3000000000000003" x2="677.0064904981456" y2="2.7" stroke-width="1" stroke-dasharray="1" stroke="rgb(0, 0, 255)"/>
<line x1="674.5816193675491" y1="-2.6999999999999997" x2="677.0064904981456" y2="-1.3000000000000003" stroke-width="1" stroke-dasharray="none" stroke="rgb(0, 0, 255)"/>
<line x1="671.6514633159657" y1="1.3000000000000003" x2="674.5816193675491" y2="1.3000000000000003" stroke-width="1" stroke-dasharray="1" stroke="rgb(0, 0, 255)"/>
<line x1="674.0763344465621" y1="2.7" x2="677.0064904981456" y2="2.7" stroke-width="1" stroke-dasharray="none" stroke="rgb(0, 0, 255)"/>
<line x1="671.6514633159657" y1="-2.6999999999999997" x2="674.5816193675491" y2="-2.6999999999999997" stroke-width="1" stroke-dasharray="none" stroke="rgb(0, 0, 255)"/>
<line x1="674.0763344465621" y1="-1.3000000000000003" x2="677.0064904981456" y2="-1.3000000000000003" stroke-width="1" stroke-dasharray="none" stroke="rgb(0, 0, 255)"/>
<line x1="674.5816193675491" y1="-2.7" x2="770.8005384671231" y2="-2.6624999999999996" stroke-width="1" stroke-dasharray="none" stroke="rgb(0, 0, 255)"/>
<line x1="677.0064904981456" y1="2.6999999999999997" x2="770.8005384671231" y2="-2.6624999999999996" stroke-width="1" stroke-dasharray="none" stroke="rgb(0, 0, 255)"/>
<text x="732.9210039995398" y="46.974999999999994" font-family="arial" font-size="14px" text-anchor="middle" fill="rgb(0, 0, 0)">maxpool4x4</text>
<text x="732.9210039995398" y="60.974999999999994" font-family="arial" font-size="14px" text-anchor="middle" fill="rgb(0, 0, 0)">stride (4, 4)</text>
<line x1="773.6800729347063" y1="0.9750000000000002" x2="773.6800729347063" y2="-2.025" stroke-width="1" stroke-dasharray="none" stroke="rgb(0, 0, 255)"/>
<line x1="776.6102289862898" y1="0.9750000000000002" x2="776.6102289862898" y2="-2.025" stroke-width="1" stroke-dasharray="1" stroke="rgb(0, 0, 255)"/>
<line x1="775.4987262826537" y1="2.025" x2="775.4987262826537" y2="-0.9750000000000002" stroke-width="1" stroke-dasharray="none" stroke="rgb(0, 0, 255)"/>
<line x1="778.4288823342372" y1="2.025" x2="778.4288823342372" y2="-0.9750000000000002" stroke-width="1" stroke-dasharray="none" stroke="rgb(0, 0, 255)"/>
<line x1="773.6800729347063" y1="0.9750000000000002" x2="775.4987262826537" y2="2.025" stroke-width="1" stroke-dasharray="none" stroke="rgb(0, 0, 255)"/>
<line x1="773.6800729347063" y1="-2.025" x2="775.4987262826537" y2="-0.9750000000000002" stroke-width="1" stroke-dasharray="none" stroke="rgb(0, 0, 255)"/>
<line x1="776.6102289862898" y1="0.9750000000000002" x2="778.4288823342372" y2="2.025" stroke-width="1" stroke-dasharray="1" stroke="rgb(0, 0, 255)"/>
<line x1="776.6102289862898" y1="-2.025" x2="778.4288823342372" y2="-0.9750000000000002" stroke-width="1" stroke-dasharray="none" stroke="rgb(0, 0, 255)"/>
<line x1="773.6800729347063" y1="0.9750000000000002" x2="776.6102289862898" y2="0.9750000000000002" stroke-width="1" stroke-dasharray="1" stroke="rgb(0, 0, 255)"/>
<line x1="775.4987262826537" y1="2.025" x2="778.4288823342372" y2="2.025" stroke-width="1" stroke-dasharray="none" stroke="rgb(0, 0, 255)"/>
<line x1="773.6800729347063" y1="-2.025" x2="776.6102289862898" y2="-2.025" stroke-width="1" stroke-dasharray="none" stroke="rgb(0, 0, 255)"/>
<line x1="775.4987262826537" y1="-0.9750000000000002" x2="778.4288823342372" y2="-0.9750000000000002" stroke-width="1" stroke-dasharray="none" stroke="rgb(0, 0, 255)"/>
<line x1="776.6102289862898" y1="-2.025" x2="854.945723497715" y2="-1.9874999999999996" stroke-width="1" stroke-dasharray="none" stroke="rgb(0, 0, 255)"/>
<line x1="778.4288823342372" y1="2.025" x2="854.945723497715" y2="-1.9874999999999996" stroke-width="1" stroke-dasharray="none" stroke="rgb(0, 0, 255)"/>
<text x="817.3692979214563" y="29.325" font-family="arial" font-size="14px" text-anchor="middle" fill="rgb(0, 0, 0)">conv3x3, 12</text>
<text x="817.3692979214563" y="43.325" font-family="arial" font-size="14px" text-anchor="middle" fill="rgb(0, 0, 0)">stride (1, 1)</text>
<line x1="857.5221490739738" y1="0.6500000000000001" x2="857.5221490739738" y2="-1.3499999999999999" stroke-width="1" stroke-dasharray="none" stroke="rgb(0, 0, 255)"/>
<line x1="861.9634351438197" y1="0.6500000000000001" x2="861.9634351438197" y2="-1.3499999999999999" stroke-width="1" stroke-dasharray="1" stroke="rgb(0, 0, 255)"/>
<line x1="858.7345846392719" y1="1.35" x2="858.7345846392719" y2="-0.6500000000000001" stroke-width="1" stroke-dasharray="none" stroke="rgb(0, 0, 255)"/>
<line x1="863.1758707091178" y1="1.35" x2="863.1758707091178" y2="-0.6500000000000001" stroke-width="1" stroke-dasharray="none" stroke="rgb(0, 0, 255)"/>
<line x1="857.5221490739738" y1="0.6500000000000001" x2="858.7345846392719" y2="1.35" stroke-width="1" stroke-dasharray="none" stroke="rgb(0, 0, 255)"/>
<line x1="857.5221490739738" y1="-1.3499999999999999" x2="858.7345846392719" y2="-0.6500000000000001" stroke-width="1" stroke-dasharray="none" stroke="rgb(0, 0, 255)"/>
<line x1="861.9634351438197" y1="0.6500000000000001" x2="863.1758707091178" y2="1.35" stroke-width="1" stroke-dasharray="1" stroke="rgb(0, 0, 255)"/>
<line x1="861.9634351438197" y1="-1.3499999999999999" x2="863.1758707091178" y2="-0.6500000000000001" stroke-width="1" stroke-dasharray="none" stroke="rgb(0, 0, 255)"/>
<line x1="857.5221490739738" y1="0.6500000000000001" x2="861.9634351438197" y2="0.6500000000000001" stroke-width="1" stroke-dasharray="1" stroke="rgb(0, 0, 255)"/>
<line x1="858.7345846392719" y1="1.35" x2="863.1758707091178" y2="1.35" stroke-width="1" stroke-dasharray="none" stroke="rgb(0, 0, 255)"/>
<line x1="857.5221490739738" y1="-1.3499999999999999" x2="861.9634351438197" y2="-1.3499999999999999" stroke-width="1" stroke-dasharray="none" stroke="rgb(0, 0, 255)"/>
<line x1="858.7345846392719" y1="-0.6500000000000001" x2="863.1758707091178" y2="-0.6500000000000001" stroke-width="1" stroke-dasharray="none" stroke="rgb(0, 0, 255)"/>
<line x1="861.9634351438197" y1="-1.35" x2="938.3287218616352" y2="-0.9499999999999998" stroke-width="1" stroke-dasharray="none" stroke="rgb(0, 0, 255)"/>
<line x1="863.1758707091178" y1="1.3499999999999999" x2="938.3287218616352" y2="-0.9499999999999998" stroke-width="1" stroke-dasharray="none" stroke="rgb(0, 0, 255)"/>
<text x="902.1162862963371" y="27.975" font-family="arial" font-size="14px" text-anchor="middle" fill="rgb(0, 0, 0)">maxpool2x2</text>
<text x="902.1162862963371" y="41.975" font-family="arial" font-size="14px" text-anchor="middle" fill="rgb(0, 0, 0)">stride (2, 2)</text>
<text x="981.4073146273759" y="31.73272817972705" font-family="arial" font-size="14px" text-anchor="middle" fill="rgb(0, 0, 0)">flatten</text>
<line x1="1018.4073146273759" y1="-7.73272817972705" x2="1088.4073146273759" y2="-3.031433133020796" stroke-width="1" stroke-dasharray="2" stroke="rgb(0, 0, 255)"/>
<line x1="1018.4073146273759" y1="7.73272817972705" x2="1088.4073146273759" y2="-3.031433133020796" stroke-width="1" stroke-dasharray="2" stroke="rgb(0, 0, 255)"/>
<text x="1053.4073146273759" y="31.73272817972705" font-family="arial" font-size="14px" text-anchor="middle" fill="rgb(0, 0, 0)">dense</text>
<line x1="1090.4073146273759" y1="-6.062866266041592" x2="1160.4073146273759" y2="-1.9999999999999998" stroke-width="1" stroke-dasharray="2" stroke="rgb(0, 0, 255)"/>
<line x1="1090.4073146273759" y1="6.062866266041592" x2="1160.4073146273759" y2="-1.9999999999999998" stroke-width="1" stroke-dasharray="2" stroke="rgb(0, 0, 255)"/>
<text x="1125.4073146273759" y="30.062866266041592" font-family="arial" font-size="14px" text-anchor="middle" fill="rgb(0, 0, 0)">dense</text>
<line x1="1162.4073146273759" y1="-3.9999999999999996" x2="1232.4073146273759" y2="-1.3195079107728942" stroke-width="1" stroke-dasharray="2" stroke="rgb(0, 0, 255)"/>
<line x1="1162.4073146273759" y1="3.9999999999999996" x2="1232.4073146273759" y2="-1.3195079107728942" stroke-width="1" stroke-dasharray="2" stroke="rgb(0, 0, 255)"/>
<text x="1197.4073146273759" y="28.0" font-family="arial" font-size="14px" text-anchor="middle" fill="rgb(0, 0, 0)">dense</text>
<line x1="1234.4073146273759" y1="-2.6390158215457884" x2="1304.4073146273759" y2="-0.25" stroke-width="1" stroke-dasharray="2" stroke="rgb(0, 0, 255)"/>
<line x1="1234.4073146273759" y1="2.6390158215457884" x2="1304.4073146273759" y2="-0.25" stroke-width="1" stroke-dasharray="2" stroke="rgb(0, 0, 255)"/>
<text x="1269.4073146273759" y="26.63901582154579" font-family="arial" font-size="14px" text-anchor="middle" fill="rgb(0, 0, 0)">dense</text>
</svg>